<svg xmlns="http://www.w3.org/2000/svg" xmlns:xlink="http://www.w3.org/1999/xlink" width="1500" zoomAndPan="magnify" viewBox="0 0 1125 374.999991" height="500" preserveAspectRatio="xMidYMid meet" version="1.0"><defs><g/><clipPath id="eabe830aa0"><path d="M 0.0390625 0.359375 L 989 0.359375 L 989 271.320312 L 0.0390625 271.320312 Z M 0.0390625 0.359375 " clip-rule="nonzero"/></clipPath><clipPath id="a290af353a"><rect x="0" width="989" y="0" height="272"/></clipPath><clipPath id="54e86aa38b"><path d="M 1009.152344 182.527344 L 1046.5 182.527344 L 1046.5 217.992188 L 1009.152344 217.992188 Z M 1009.152344 182.527344 " clip-rule="nonzero"/></clipPath><clipPath id="74e6530e9a"><path d="M 0.152344 0.527344 L 37.5 0.527344 L 37.5 35.992188 L 0.152344 35.992188 Z M 0.152344 0.527344 " clip-rule="nonzero"/></clipPath><clipPath id="2d0ccf298d"><rect x="0" width="38" y="0" height="36"/></clipPath><clipPath id="bdcafc98c7"><rect x="0" width="1047" y="0" height="272"/></clipPath></defs><rect x="-112.5" width="1350" fill="#ffffff" y="-37.499999" height="449.999989" fill-opacity="1"/><rect x="-112.5" width="1350" fill="#ffffff" y="-37.499999" height="449.999989" fill-opacity="1"/><g transform="matrix(1, 0, 0, 1, 41, 51)"><g clip-path="url(#bdcafc98c7)"><g clip-path="url(#eabe830aa0)"><g transform="matrix(1, 0, 0, 1, -0.000000000000007105, 0)"><g clip-path="url(#a290af353a)"><g fill="#001d6c" fill-opacity="1"><g transform="translate(0.683605, 218.653576)"><g><path d="M 90.46875 -36.453125 L 90.46875 -4.125 C 86.414062 -1.8125 82.289062 -0.1875 78.09375 0.75 C 73.90625 1.695312 69.207031 2.171875 64 2.171875 C 50.832031 2.171875 40.597656 -1.550781 33.296875 -9 C 25.992188 -16.445312 22.34375 -26.828125 22.34375 -40.140625 L 22.34375 -84.390625 L 0.65625 -84.390625 L 0.65625 -116.71875 L 22.34375 -116.71875 L 22.34375 -150.984375 L 59.4375 -150.984375 L 59.4375 -116.71875 L 91.328125 -116.71875 L 91.328125 -84.390625 L 59.4375 -84.390625 L 59.4375 -48.8125 C 59.4375 -37.820312 64.425781 -32.328125 74.40625 -32.328125 C 80.769531 -32.328125 86.125 -33.703125 90.46875 -36.453125 Z M 90.46875 -36.453125 "/></g></g></g><g fill="#001d6c" fill-opacity="1"><g transform="translate(96.356183, 218.653576)"><g><path d="M 49.25 -53.796875 L 49.25 0 L 12.15625 0 L 12.15625 -116.71875 L 46.203125 -116.71875 L 46.203125 -96.109375 C 50.691406 -102.898438 57.164062 -108.175781 65.625 -111.9375 C 74.082031 -115.695312 82.941406 -117.578125 92.203125 -117.578125 L 92.203125 -78.96875 C 83.523438 -79.832031 75.96875 -79.9375 69.53125 -79.28125 C 63.09375 -78.632812 58.101562 -76.394531 54.5625 -72.5625 C 51.019531 -68.726562 49.25 -62.472656 49.25 -53.796875 Z M 49.25 -53.796875 "/></g></g></g><g fill="#001d6c" fill-opacity="1"><g transform="translate(190.727087, 218.653576)"><g><path d="M 81.359375 -50.109375 L 81.359375 -116.71875 L 118.453125 -116.71875 L 118.453125 0 L 84.390625 0 L 84.390625 -12.578125 C 81.203125 -8.242188 76.679688 -4.703125 70.828125 -1.953125 C 64.972656 0.796875 58.644531 2.171875 51.84375 2.171875 C 44.175781 2.171875 37.234375 0.546875 31.015625 -2.703125 C 24.796875 -5.960938 19.914062 -10.953125 16.375 -17.671875 C 12.832031 -24.398438 11.0625 -32.898438 11.0625 -43.171875 L 11.0625 -116.71875 L 48.15625 -116.71875 L 48.15625 -50.109375 C 48.15625 -43.742188 49.632812 -38.96875 52.59375 -35.78125 C 55.5625 -32.601562 59.648438 -31.015625 64.859375 -31.015625 C 68.617188 -31.015625 72.304688 -32.535156 75.921875 -35.578125 C 79.546875 -38.617188 81.359375 -43.460938 81.359375 -50.109375 Z M 81.359375 -50.109375 "/></g></g></g><g fill="#001d6c" fill-opacity="1"><g transform="translate(321.327766, 218.653576)"><g><path d="M 115.625 -39.703125 C 115.625 -26.828125 110.992188 -16.628906 101.734375 -9.109375 C 92.484375 -1.585938 79.035156 2.171875 61.390625 2.171875 C 43.890625 2.171875 30.367188 -1.695312 20.828125 -9.4375 C 11.285156 -17.175781 5.929688 -27.769531 4.765625 -41.21875 L 40.34375 -41.21875 C 40.34375 -36.300781 42.367188 -32.394531 46.421875 -29.5 C 50.472656 -26.613281 55.679688 -25.171875 62.046875 -25.171875 C 66.234375 -25.171875 69.953125 -25.75 73.203125 -26.90625 C 76.460938 -28.0625 78.09375 -30.15625 78.09375 -33.1875 C 78.09375 -35.789062 77.113281 -37.742188 75.15625 -39.046875 C 73.207031 -40.347656 70.210938 -41.359375 66.171875 -42.078125 L 43.171875 -46.203125 C 33.046875 -48.085938 24.945312 -51.921875 18.875 -57.703125 C 12.800781 -63.492188 9.765625 -71.085938 9.765625 -80.484375 C 9.765625 -88.003906 11.785156 -94.65625 15.828125 -100.4375 C 19.878906 -106.226562 25.628906 -110.75 33.078125 -114 C 40.523438 -117.25 49.3125 -118.875 59.4375 -118.875 C 69.707031 -118.875 78.742188 -117.175781 86.546875 -113.78125 C 94.359375 -110.382812 100.613281 -105.503906 105.3125 -99.140625 C 110.019531 -92.773438 112.734375 -85.253906 113.453125 -76.578125 L 77.875 -76.578125 C 77.445312 -81.203125 75.566406 -84.851562 72.234375 -87.53125 C 68.910156 -90.207031 64.71875 -91.546875 59.65625 -91.546875 C 55.320312 -91.546875 51.851562 -90.929688 49.25 -89.703125 C 46.644531 -88.472656 45.34375 -86.554688 45.34375 -83.953125 C 45.34375 -81.492188 46.28125 -79.757812 48.15625 -78.75 C 50.039062 -77.738281 52.789062 -76.867188 56.40625 -76.140625 L 81.140625 -71.59375 C 104.128906 -67.394531 115.625 -56.765625 115.625 -39.703125 Z M 115.625 -39.703125 "/></g></g></g><g fill="#001d6c" fill-opacity="1"><g transform="translate(439.562576, 218.653576)"><g><path d="M 90.46875 -36.453125 L 90.46875 -4.125 C 86.414062 -1.8125 82.289062 -0.1875 78.09375 0.75 C 73.90625 1.695312 69.207031 2.171875 64 2.171875 C 50.832031 2.171875 40.597656 -1.550781 33.296875 -9 C 25.992188 -16.445312 22.34375 -26.828125 22.34375 -40.140625 L 22.34375 -84.390625 L 0.65625 -84.390625 L 0.65625 -116.71875 L 22.34375 -116.71875 L 22.34375 -150.984375 L 59.4375 -150.984375 L 59.4375 -116.71875 L 91.328125 -116.71875 L 91.328125 -84.390625 L 59.4375 -84.390625 L 59.4375 -48.8125 C 59.4375 -37.820312 64.425781 -32.328125 74.40625 -32.328125 C 80.769531 -32.328125 86.125 -33.703125 90.46875 -36.453125 Z M 90.46875 -36.453125 "/></g></g></g><g fill="#001d6c" fill-opacity="1"><g transform="translate(535.235131, 218.653576)"><g><path d="M 54.234375 -143.828125 C 54.234375 -137.753906 52.023438 -132.726562 47.609375 -128.75 C 43.203125 -124.769531 37.457031 -122.78125 30.375 -122.78125 C 23.28125 -122.78125 17.53125 -124.769531 13.125 -128.75 C 8.71875 -132.726562 6.515625 -137.753906 6.515625 -143.828125 C 6.515625 -150.046875 8.71875 -155.144531 13.125 -159.125 C 17.53125 -163.101562 23.28125 -165.09375 30.375 -165.09375 C 37.457031 -165.09375 43.203125 -163.101562 47.609375 -159.125 C 52.023438 -155.144531 54.234375 -150.046875 54.234375 -143.828125 Z M 49.25 0 L 12.15625 0 L 12.15625 -116.71875 L 49.25 -116.71875 Z M 49.25 0 "/></g></g></g><g fill="#001d6c" fill-opacity="1"><g transform="translate(596.630483, 218.653576)"><g><path d="M 4.765625 -58.359375 C 4.765625 -69.640625 6.929688 -79.867188 11.265625 -89.046875 C 15.609375 -98.234375 21.6875 -105.5 29.5 -110.84375 C 37.3125 -116.195312 46.425781 -118.875 56.84375 -118.875 C 68.84375 -118.875 79.398438 -114.535156 88.515625 -105.859375 L 88.515625 -155.765625 L 125.609375 -155.765625 L 125.609375 0 L 91.546875 0 L 91.546875 -13.234375 C 86.773438 -8.316406 81.492188 -4.519531 75.703125 -1.84375 C 69.921875 0.832031 63.632812 2.171875 56.84375 2.171875 C 46.425781 2.171875 37.3125 -0.535156 29.5 -5.953125 C 21.6875 -11.378906 15.609375 -18.6875 11.265625 -27.875 C 6.929688 -37.0625 4.765625 -47.222656 4.765625 -58.359375 Z M 43.390625 -58.359375 C 43.390625 -49.242188 45.703125 -42.441406 50.328125 -37.953125 C 54.953125 -33.472656 60.085938 -31.234375 65.734375 -31.234375 C 71.515625 -31.234375 76.679688 -33.472656 81.234375 -37.953125 C 85.796875 -42.441406 88.078125 -49.316406 88.078125 -58.578125 C 88.078125 -67.972656 85.757812 -74.800781 81.125 -79.0625 C 76.5 -83.332031 71.367188 -85.46875 65.734375 -85.46875 C 60.085938 -85.46875 54.953125 -83.296875 50.328125 -78.953125 C 45.703125 -74.617188 43.390625 -67.753906 43.390625 -58.359375 Z M 43.390625 -58.359375 "/></g></g></g><g fill="#001d6c" fill-opacity="1"><g transform="translate(734.390331, 218.653576)"><g><path d="M 64.859375 1.953125 C 52.859375 1.953125 42.335938 -0.578125 33.296875 -5.640625 C 24.253906 -10.703125 17.238281 -17.785156 12.25 -26.890625 C 7.257812 -36.003906 4.765625 -46.566406 4.765625 -58.578125 C 4.765625 -70.285156 7.332031 -80.660156 12.46875 -89.703125 C 17.601562 -98.742188 24.691406 -105.863281 33.734375 -111.0625 C 42.773438 -116.269531 53.078125 -118.875 64.640625 -118.875 C 74.335938 -118.875 83.085938 -117.066406 90.890625 -113.453125 C 98.703125 -109.835938 105.25 -104.8125 110.53125 -98.375 C 115.8125 -91.945312 119.535156 -84.5 121.703125 -76.03125 C 123.867188 -67.570312 124.085938 -58.570312 122.359375 -49.03125 L 43.171875 -49.03125 C 45.191406 -34.28125 52.132812 -26.90625 64 -26.90625 C 74.40625 -26.90625 81.273438 -31.171875 84.609375 -39.703125 L 121.703125 -39.703125 C 118.085938 -26.390625 111.363281 -16.117188 101.53125 -8.890625 C 91.695312 -1.660156 79.472656 1.953125 64.859375 1.953125 Z M 63.78125 -91.546875 C 52.9375 -91.546875 46.210938 -85.109375 43.609375 -72.234375 L 82.65625 -72.234375 C 82.507812 -78.171875 80.695312 -82.875 77.21875 -86.34375 C 73.75 -89.8125 69.269531 -91.546875 63.78125 -91.546875 Z M 63.78125 -91.546875 "/></g></g></g><g fill="#001d6c" fill-opacity="1"><g transform="translate(856.096271, 218.653576)"><g><path d="M 44.25 0 L 2.609375 0 L 40.34375 -59.21875 L 5.203125 -116.71875 L 48.375 -116.71875 L 67.90625 -79.609375 L 87.421875 -116.71875 L 126.6875 -116.71875 L 92.203125 -57.703125 L 129.515625 0 L 87.203125 0 L 65.296875 -38.1875 Z M 44.25 0 "/></g></g></g></g></g></g><g clip-path="url(#54e86aa38b)"><g transform="matrix(1, 0, 0, 1, 1009, 182)"><g clip-path="url(#2d0ccf298d)"><g clip-path="url(#74e6530e9a)"><path fill="#e8a020" d="M 0.152344 0.527344 L 37.558594 0.527344 L 37.558594 35.992188 L 0.152344 35.992188 Z M 0.152344 0.527344 " fill-opacity="1" fill-rule="nonzero"/></g></g></g></g></g></g></svg>